<?xml version="1.0" standalone="no"?>
<!DOCTYPE svg PUBLIC "-//W3C//DTD SVG 20010904//EN"
 "http://www.w3.org/TR/2001/REC-SVG-20010904/DTD/svg10.dtd">
<svg version="1.0" xmlns="http://www.w3.org/2000/svg"
 width="64.000000pt" height="64.000000pt" viewBox="0 0 64.000000 64.000000"
 preserveAspectRatio="xMidYMid meet">
<g transform="translate(0.000000,64.000000) scale(0.100000,-0.100000)"
fill="#000000" stroke="none">
<path d="M123 500 c-13 -5 -24 -13 -24 -17 -1 -4 -3 -79 -4 -166 -2 -155 -2
-158 21 -176 13 -10 22 -20 19 -22 -3 -4 377 5 383 9 2 1 0 7 -3 12 -3 6 -2
10 2 10 10 0 35 105 38 164 3 40 -11 86 -26 86 -5 0 -6 6 -3 13 2 7 -3 22 -13
33 -15 18 -32 21 -116 23 -77 1 -104 6 -130 21 -34 21 -105 26 -144 10z m134
-40 c5 -19 14 -20 123 -20 l117 0 7 -40 c4 -27 11 -40 22 -40 17 0 17 3 -13
-138 l-15 -72 -189 0 -189 0 0 158 c0 87 3 162 7 165 3 4 33 7 66 7 50 0 60
-3 64 -20z"/>
<path d="M131 348 c1 -88 3 -105 10 -78 5 19 7 59 3 88 l-5 52 164 0 c123 0
167 -3 171 -12 3 -7 5 -4 3 6 -2 18 -11 20 -111 19 -97 0 -109 2 -114 19 -4
15 -14 18 -63 18 l-59 0 1 -112z m97 95 c-10 -2 -28 -2 -40 0 -13 2 -5 4 17 4
22 1 32 -1 23 -4z"/>
<path d="M160 380 c0 -23 15 -27 24 -5 4 11 33 15 143 18 l138 3 -152 2 c-147
2 -153 1 -153 -18z"/>
<path d="M263 363 c42 -2 112 -2 155 0 42 1 7 3 -78 3 -85 0 -120 -2 -77 -3z"/>
<path d="M170 345 c-1 0 -3 -18 -6 -40 -4 -21 -12 -61 -19 -87 l-12 -48 176 0
177 0 17 82 c9 45 15 83 13 85 -2 3 -236 8 -346 8z m317 -39 c1 -1 -4 -24 -11
-51 l-12 -50 -148 -3 -148 -3 6 28 c4 16 8 38 11 51 2 12 6 25 8 30 4 6 288 5
294 -2z"/>
</g>
</svg>
