<?xml version="1.0" standalone="no"?>
<!DOCTYPE svg PUBLIC "-//W3C//DTD SVG 20010904//EN"
 "http://www.w3.org/TR/2001/REC-SVG-20010904/DTD/svg10.dtd">
<svg version="1.0" xmlns="http://www.w3.org/2000/svg"
 width="104.000000pt" height="94.000000pt" viewBox="0 0 104.000000 94.000000"
 preserveAspectRatio="xMidYMid meet">
<g transform="translate(0.000000,94.000000) scale(0.100000,-0.100000)"
fill="#000000" stroke="none">
<path d="M242 760 c-65 -40 -70 -56 -70 -218 0 -80 4 -158 10 -172 16 -44 66
-80 111 -80 22 0 38 -3 34 -6 -10 -10 32 -84 47 -84 8 0 35 16 60 35 25 19 46
32 46 29 0 -3 10 2 22 10 17 12 50 16 140 16 101 0 118 2 127 18 6 9 11 13 11
8 0 -5 14 8 30 29 l30 38 0 151 c0 173 -7 193 -84 237 -15 9 -17 8 -10 -3 6
-11 5 -11 -8 0 -12 10 -70 13 -241 11 -196 -1 -229 -4 -255 -19z m537 -36 l31
-26 0 -158 c0 -153 -1 -160 -24 -187 -24 -27 -27 -28 -153 -33 l-128 -5 -62
-42 c-34 -24 -67 -43 -72 -43 -6 0 -11 20 -11 45 l0 45 -51 0 c-43 0 -55 5
-80 29 l-29 29 0 157 0 157 29 29 29 29 245 0 245 0 31 -26z"/>
<path d="M246 688 c-13 -18 -16 -51 -16 -153 0 -164 4 -173 93 -177 l62 -3 3
-37 3 -38 60 40 59 41 117 -2 c155 -2 153 -5 153 175 0 191 23 176 -275 176
-241 0 -244 0 -259 -22z m496 -13 c4 -5 5 -18 2 -29 -4 -10 -2 -16 2 -13 15 9
11 -216 -4 -232 -10 -10 -41 -13 -121 -12 -109 2 -144 -7 -199 -51 -9 -8 -11
-7 -6 5 9 25 -39 51 -86 44 -64 -8 -69 1 -70 138 -1 160 -2 153 17 157 42 8
459 2 465 -7z"/>
<path d="M325 608 c-48 -27 -57 -85 -19 -128 33 -37 63 -38 97 -4 23 23 28 24
41 11 8 -8 13 -17 10 -20 -4 -3 10 -9 29 -12 27 -5 43 -2 64 12 36 25 60 38
51 28 -10 -11 36 -45 61 -45 12 0 24 7 27 15 4 8 13 15 21 15 8 0 11 5 8 10
-3 6 -1 10 4 10 6 0 11 16 11 34 0 28 -7 40 -34 61 -33 25 -34 26 -75 9 -39
-15 -43 -15 -60 0 -10 9 -21 16 -26 16 -5 0 0 -7 11 -16 18 -15 17 -15 -7 -1
-31 18 -47 17 -82 -6 -32 -20 -32 -20 -49 -4 -20 20 -60 27 -83 15z m69 -34
c24 -23 20 -61 -9 -80 -30 -20 -58 -11 -74 22 -24 53 42 100 83 58z m147 6
c20 -11 26 -54 11 -78 -10 -15 -50 -24 -74 -16 -18 5 -34 39 -29 64 6 35 54
50 92 30z m155 -15 c20 -30 11 -62 -21 -77 -52 -23 -99 46 -59 86 23 24 61 20
80 -9z"/>
<path d="M497 529 c7 -7 15 -10 18 -7 3 3 -2 9 -12 12 -14 6 -15 5 -6 -5z"/>
</g>
</svg>
