<?xml version="1.0" standalone="no"?> <!DOCTYPE svg PUBLIC "-//W3C//DTD SVG 20010904//EN" "http://www.w3.org/TR/2001/REC-SVG-20010904/DTD/svg10.dtd"> <svg version="1.0" xmlns="http://www.w3.org/2000/svg" width="80.000000pt" height="80.000000pt" viewBox="0 0 80.000000 80.000000" preserveAspectRatio="xMidYMid meet"> <g transform="translate(0.000000,80.000000) scale(0.100000,-0.100000)" fill="#fdf7f7" stroke="none"> <path d="M352 663 c-17 -12 -45 -15 -112 -14 -61 2 -90 -1 -90 -9 0 -6 -4 -8 -10 -5 -6 4 -10 -6 -10 -24 0 -36 8 -39 122 -43 48 -1 85 -4 83 -6 -3 -3 3 -11 13 -18 25 -20 70 -17 95 6 18 18 33 20 104 19 86 -2 113 7 113 41 0 33 -25 41 -112 39 -56 -1 -92 3 -109 12 -34 19 -60 20 -87 2z m78 -28 c10 -11 36 -15 112 -15 70 0 99 -3 96 -11 -3 -8 -34 -11 -95 -10 -85 2 -93 1 -116 -23 -28 -28 -61 -26 -78 6 -9 17 -20 19 -105 16 -70 -2 -94 0 -94 10 0 9 26 12 99 12 79 0 100 3 105 15 3 9 18 15 34 15 16 0 35 -7 42 -15z"/> <path d="M367 617 c-8 -21 8 -39 29 -35 27 5 25 42 -2 46 -12 2 -24 -3 -27 -11z"/> <path d="M154 503 c-30 -25 -41 -68 -24 -88 6 -7 7 -14 4 -18 -6 -6 42 -40 62 -43 7 -1 25 9 40 22 26 24 29 25 207 25 152 0 184 3 199 16 24 22 23 40 -6 58 -19 13 -52 15 -167 14 -199 -3 -217 -1 -237 19 -25 24 -46 23 -78 -5z m73 -25 c18 -23 22 -23 216 -22 163 2 197 -1 197 -12 0 -12 -35 -14 -199 -14 -164 0 -201 -3 -211 -15 -7 -8 -9 -15 -4 -15 5 0 1 -5 -9 -11 -20 -12 -60 -2 -52 12 4 5 1 9 -4 9 -17 0 -13 57 5 74 21 22 39 20 61 -6z"/> <path d="M174 455 c-4 -9 -2 -21 4 -27 15 -15 44 -1 40 19 -4 23 -36 29 -44 8z"/> <path d="M543 329 c-30 -19 -47 -21 -206 -19 -155 1 -176 -1 -197 -18 -19 -16 -21 -21 -11 -40 12 -22 16 -23 206 -22 183 1 196 0 216 -19 43 -40 109 -3 109 60 0 29 -6 42 -26 58 -33 26 -50 26 -91 0z m86 -23 c7 -8 11 -27 9 -43 -3 -24 -8 -28 -39 -31 -23 -2 -40 2 -49 12 -10 14 -43 16 -206 16 -123 0 -194 4 -194 10 0 6 71 10 193 10 181 0 195 1 212 20 21 23 57 26 74 6z"/> <path d="M571 286 c-9 -11 -8 -18 5 -31 14 -14 19 -14 31 -2 15 15 8 47 -12 47 -7 0 -18 -6 -24 -14z"/> </g> </svg>