<svg version="1.1" xmlns="http://www.w3.org/2000/svg" width="800" height="800" viewBox="0 0 600 600" xmlns:xlink="http://www.w3.org/1999/xlink">
  <path d="M90.701 93.101c-2.099 1.205 -4.696 6.099 -4.696 8.696 0 1.901 8.395 19.802 35.501 76.198 7.002 14.598 15.896 32.998 19.699 40.998 3.896 8 11.2 23.304 16.301 33.995 22.598 47.605 26.202 54.598 28.998 55.802 1.995 0.904 30.296 1.205 117.6 1.205H419.2l2.899 -2.899c4.198 -4.198 4.104 -10.202 -0.198 -14.202l-3.096 -2.899H197.901l-10.598 -21.798a3454.118 3454.118 0 0 1 -13.798 -28.696 6183.529 6183.529 0 0 0 -22.504 -47.002c-4 -8.301 -8.904 -18.598 -11.002 -23.002s-7.595 -16 -12.395 -25.798c-4.696 -9.798 -8.602 -18.296 -8.602 -18.701 0 -0.499 13.798 5.901 30.795 14.202 16.904 8.301 36.104 17.6 42.701 20.8s21.496 10.4 32.998 16c11.595 5.6 27.802 13.496 36 17.496 8.301 4 24.198 11.802 35.501 17.195 40.602 19.802 93.901 45.704 113.995 55.501 52.602 25.496 68 33.205 68 33.995 0 0.499 -1.901 1.704 -4.198 2.701 -2.4 1.101 -16.395 7.802 -31.304 15.096a4131.765 4131.765 0 0 1 -37.995 18.504c-5.995 2.899 -21.299 10.296 -33.995 16.499 -12.602 6.202 -30.202 14.701 -39.002 19.002s-25.901 12.602 -37.995 18.504 -27.398 13.299 -33.995 16.499 -23.002 11.096 -36.499 17.704 -34.202 16.602 -46.005 22.4c-11.802 5.704 -29.798 14.504 -40 19.501s-18.598 8.8 -18.805 8.395c-0.104 -0.405 3.398 -8.301 7.896 -17.6 7.802 -16.301 14.4 -29.901 23.398 -48.904 2.4 -4.998 8.602 -17.995 13.901 -28.998s9.6 -21.195 9.6 -22.701c0 -3.501 -4.301 -8.499 -7.896 -9.299 -5.101 -1.101 -9.496 1.6 -12.395 7.595 -1.402 3.002 -7.699 16.104 -14.099 29.299 -6.4 13.101 -11.595 23.896 -11.595 24.104 0 0.104 -4.499 9.704 -10.099 21.101a2437.647 2437.647 0 0 0 -13.402 27.896c-1.798 3.802 -6.701 14.202 -10.899 23.002s-7.614 16.809 -7.614 17.807c0 2.701 2.701 7.501 4.904 8.696 1.101 0.499 3.398 0.998 4.998 0.998 3.605 0 4.104 -0.198 83.595 -39.002 32.998 -16.104 67.2 -32.696 76 -36.998 32.8 -15.896 82.795 -40.198 145.995 -71.002 11.595 -5.6 25.995 -12.602 32 -15.501 11.002 -5.299 65.205 -31.699 73.299 -35.802 6.504 -3.2 8.602 -8.395 5.995 -14.296 -1.101 -2.296 -7.896 -5.995 -40.696 -22.099a4997.647 4997.647 0 0 0 -39.605 -19.304c-0.198 0 -14.202 -6.795 -31.096 -15.096 -16.998 -8.301 -36.301 -17.704 -42.899 -20.904 -12.104 -5.798 -31.002 -15.002 -70.005 -33.995 -11.501 -5.6 -26.4 -12.8 -32.998 -16s-22.795 -11.002 -36 -17.496 -29.402 -14.296 -36 -17.496 -25.496 -12.395 -41.995 -20.499 -32.904 -16 -36.301 -17.6c-6.598 -3.002 -11.398 -3.605 -14.504 -1.798"/>
</svg>
